<svg xmlns="http://www.w3.org/2000/svg" width="1200" height="720" viewBox="0 0 1200 720" role="img" aria-labelledby="title desc">
  <title id="title">Patient consultation illustration</title>
  <desc id="desc">A calm clinic consultation scene with a doctor desk and patient care symbols.</desc>
  <defs>
    <linearGradient id="bg" x1="0" x2="1" y1="0" y2="1">
      <stop offset="0" stop-color="#fff7fc"/>
      <stop offset="1" stop-color="#edf4ff"/>
    </linearGradient>
    <linearGradient id="panel" x1="0" x2="1">
      <stop offset="0" stop-color="#e84faf"/>
      <stop offset="1" stop-color="#3157b7"/>
    </linearGradient>
  </defs>
  <rect width="1200" height="720" fill="url(#bg)"/>
  <rect x="108" y="126" width="984" height="468" rx="32" fill="#fff" stroke="#f7cde7" stroke-width="4"/>
  <rect x="170" y="208" width="346" height="250" rx="22" fill="#fdf1f8"/>
  <circle cx="280" cy="302" r="56" fill="#3157b7"/>
  <path d="M202 430c18-66 138-66 156 0" fill="none" stroke="#e84faf" stroke-width="22" stroke-linecap="round"/>
  <rect x="628" y="214" width="334" height="44" rx="12" fill="#eef4ff"/>
  <rect x="628" y="294" width="268" height="32" rx="10" fill="#fce3f3"/>
  <rect x="628" y="358" width="304" height="32" rx="10" fill="#e8fbf4"/>
  <path d="M671 492h210" stroke="#3157b7" stroke-width="18" stroke-linecap="round"/>
  <path d="M760 403v178M671 492h210" stroke="url(#panel)" stroke-width="18" stroke-linecap="round"/>
  <circle cx="938" cy="485" r="42" fill="#fff" stroke="#e84faf" stroke-width="10"/>
  <path d="M938 461v28l22 13" fill="none" stroke="#3157b7" stroke-width="10" stroke-linecap="round"/>
</svg>
